<?xml version="1.0" standalone="no"?>
<!DOCTYPE svg PUBLIC "-//W3C//DTD SVG 20010904//EN"
 "http://www.w3.org/TR/2001/REC-SVG-20010904/DTD/svg10.dtd">
<svg version="1.0" xmlns="http://www.w3.org/2000/svg"
 width="16.000000pt" height="16.000000pt" viewBox="0 0 16.000000 16.000000"
 preserveAspectRatio="xMidYMid meet">
<metadata>
Created by potrace 1.11, written by Peter Selinger 2001-2013
</metadata>
<g transform="translate(0.000000,16.000000) scale(0.003125,-0.003125)"
fill="#000000" stroke="none">
<path d="M235 2573 l0 -2028 1263 -3 c1197 -2 1262 -1 1263 15 0 22 0 768 0
805 l-1 28 -791 2 -792 3 1 380 c0 209 1 390 1 402 l1 23 428 0 c235 0 535 0
667 0 l240 0 0 415 0 415 -667 0 c-629 0 -668 1 -669 18 0 9 -1 172 -1 362 l0
345 648 2 c357 1 709 2 782 3 l132 0 0 420 0 420 -1253 0 -1252 0 0 -2027z"/>
<path d="M3297 4503 c-16 -92 -20 -113 -32 -180 -3 -16 -8 -41 -11 -58 -2 -16
-20 -113 -38 -215 -18 -102 -32 -186 -31 -188 2 -2 162 -3 356 -4 l354 0 0
-1659 -1 -1659 498 0 498 0 0 2030 0 2030 -788 0 -789 0 -16 -97z"/>
</g>
</svg>
